<svg width="450" height="799" viewBox="0 0 450 799" fill="none" xmlns="http://www.w3.org/2000/svg">
<g clip-path="url(#clip0_0_480)">
<rect width="450" height="799" fill="#151515"/>
<mask id="mask0_0_480" style="mask-type:luminance" maskUnits="userSpaceOnUse" x="0" y="0" width="450" height="799">
<rect width="450" height="799" fill="white"/>
</mask>
<g mask="url(#mask0_0_480)">
<path d="M168.84 270V193.2H191.976L198.312 222.288L199.56 257.328H202.056L203.208 222.288L209.64 193.2H232.68V270H218.28V246.384L221.064 205.872H218.472L214.44 247.344L208.488 270H193.032L187.176 247.344L183.048 205.872H180.552L183.24 246.384V270H168.84ZM259.882 270.96C252.842 270.96 247.722 269.488 244.522 266.544C241.386 263.536 239.754 258.576 239.626 251.664C239.498 245.392 239.434 238.704 239.434 231.6C239.434 224.432 239.498 217.712 239.626 211.44C239.754 204.592 241.386 199.696 244.522 196.752C247.722 193.744 252.842 192.24 259.882 192.24C266.922 192.24 271.978 193.744 275.05 196.752C278.122 199.696 279.786 204.592 280.042 211.44C280.298 217.84 280.426 224.592 280.426 231.696C280.426 238.736 280.298 245.392 280.042 251.664C279.786 258.576 278.122 263.536 275.05 266.544C271.978 269.488 266.922 270.96 259.882 270.96ZM259.882 259.248C263.594 259.248 265.514 257.616 265.642 254.352C265.77 251.088 265.866 247.504 265.93 243.6C266.058 239.696 266.122 235.696 266.122 231.6C266.122 227.44 266.058 223.408 265.93 219.504C265.866 215.6 265.77 212.016 265.642 208.752C265.514 205.552 263.594 203.952 259.882 203.952C256.106 203.952 254.154 205.552 254.026 208.752C253.898 212.016 253.802 215.6 253.738 219.504C253.674 223.408 253.642 227.44 253.642 231.6C253.642 235.696 253.674 239.696 253.738 243.6C253.802 247.504 253.898 251.088 254.026 254.352C254.154 257.616 256.106 259.248 259.882 259.248ZM286.215 270V193.2H305.703C312.935 193.2 318.151 194.736 321.351 197.808C324.551 200.816 326.215 205.84 326.343 212.88C326.471 217.296 326.535 221.52 326.535 225.552C326.599 229.52 326.599 233.52 326.535 237.552C326.535 241.52 326.471 245.744 326.343 250.224C326.215 257.264 324.551 262.32 321.351 265.392C318.151 268.464 312.935 270 305.703 270H286.215ZM300.615 257.328H305.703C309.735 257.328 311.815 255.536 311.943 251.952C312.327 238.32 312.327 224.72 311.943 211.152C311.815 207.632 309.735 205.872 305.703 205.872H300.615V257.328ZM332.34 270V193.2H365.556V205.872H346.74V224.592H364.596V237.264H346.74V257.328H365.556V270H332.34ZM370.403 270V193.2H388.931C396.099 193.2 401.251 194.672 404.387 197.616C407.587 200.496 409.315 205.264 409.571 211.92C409.635 213.712 409.667 215.28 409.667 216.624C409.731 217.968 409.731 219.312 409.667 220.656C409.667 222 409.635 223.568 409.571 225.36C409.443 229.52 408.739 232.944 407.459 235.632C406.179 238.256 404.227 240.272 401.603 241.68L410.627 270H395.363L388.067 244.08H384.803V270H370.403ZM384.803 231.408H388.931C392.899 231.408 394.979 229.648 395.171 226.128C395.491 221.136 395.491 216.144 395.171 211.152C394.979 207.632 392.899 205.872 388.931 205.872H384.803V231.408ZM416.34 270V193.2H437.172L442.932 217.68L448.212 257.328H450.708L448.02 226.128L446.868 193.2H460.788V270H438.9L433.14 244.848L429.204 205.776H426.516L429.012 240.528L430.26 270H416.34ZM166.92 358L177.576 281.2H200.232L210.888 358H196.104L194.472 341.968H183.336L181.704 358H166.92ZM184.68 329.296H193.128L191.4 312.304L190.248 293.872H187.56L186.408 312.304L184.68 329.296ZM214.778 358V281.2H233.306C240.474 281.2 245.626 282.672 248.762 285.616C251.962 288.496 253.69 293.264 253.946 299.92C254.01 301.712 254.042 303.28 254.042 304.624C254.106 305.968 254.106 307.312 254.042 308.656C254.042 310 254.01 311.568 253.946 313.36C253.818 317.52 253.114 320.944 251.834 323.632C250.554 326.256 248.602 328.272 245.978 329.68L255.002 358H239.738L232.442 332.08H229.178V358H214.778ZM229.178 319.408H233.306C237.274 319.408 239.354 317.648 239.546 314.128C239.866 309.136 239.866 304.144 239.546 299.152C239.354 295.632 237.274 293.872 233.306 293.872H229.178V319.408ZM269.304 358V293.872H256.92V281.2H295.992V293.872H283.704V358H269.304ZM343.415 358.96C338.615 358.96 334.743 358.32 331.799 357.04C328.919 355.696 326.807 353.616 325.463 350.8C324.119 347.984 323.351 344.272 323.159 339.664C323.095 336.976 323.031 333.936 322.967 330.544C322.903 327.088 322.871 323.536 322.871 319.888C322.871 316.176 322.903 312.624 322.967 309.232C323.031 305.84 323.095 302.864 323.159 300.304C323.351 295.44 324.119 291.536 325.463 288.592C326.871 285.648 329.015 283.536 331.895 282.256C334.839 280.912 338.679 280.24 343.415 280.24C350.135 280.24 355.031 281.744 358.103 284.752C361.175 287.696 362.935 292.592 363.383 299.44C363.511 300.912 363.575 302.672 363.575 304.72C363.575 306.768 363.511 308.528 363.383 310H348.983C349.111 308.208 349.175 306 349.175 303.376C349.175 300.752 349.111 298.544 348.983 296.752C348.791 293.552 346.935 291.952 343.415 291.952C339.703 291.952 337.751 293.552 337.559 296.752C337.303 301.232 337.111 306.16 336.983 311.536C336.919 316.912 336.919 322.288 336.983 327.664C337.111 332.976 337.303 337.872 337.559 342.352C337.751 345.616 339.703 347.248 343.415 347.248C345.271 347.248 346.743 346.832 347.831 346C348.919 345.168 349.527 343.952 349.655 342.352C349.719 341.584 349.751 340.624 349.751 339.472C349.815 338.256 349.815 337.04 349.751 335.824C349.751 334.608 349.719 333.648 349.655 332.944H344.375V320.464H363.671C363.799 323.408 363.831 326.608 363.767 330.064C363.767 333.52 363.703 336.72 363.575 339.664C363.255 346.576 361.527 351.536 358.391 354.544C355.255 357.488 350.263 358.96 343.415 358.96ZM365.858 358L376.514 281.2H399.17L409.826 358H395.042L393.41 341.968H382.274L380.642 358H365.858ZM383.618 329.296H392.066L390.338 312.304L389.186 293.872H386.498L385.346 312.304L383.618 329.296ZM413.715 358V281.2H428.115V345.328H447.027V358H413.715ZM451.871 358V281.2H466.271V345.328H485.183V358H451.871ZM490.028 358V281.2H523.244V293.872H504.428V312.592H522.284V325.264H504.428V345.328H523.244V358H490.028ZM528.09 358V281.2H546.618C553.786 281.2 558.938 282.672 562.074 285.616C565.274 288.496 567.002 293.264 567.258 299.92C567.322 301.712 567.354 303.28 567.354 304.624C567.418 305.968 567.418 307.312 567.354 308.656C567.354 310 567.322 311.568 567.258 313.36C567.13 317.52 566.426 320.944 565.146 323.632C563.866 326.256 561.914 328.272 559.29 329.68L568.314 358H553.05L545.754 332.08H542.49V358H528.09ZM542.49 319.408H546.618C550.586 319.408 552.666 317.648 552.858 314.128C553.178 309.136 553.178 304.144 552.858 299.152C552.666 295.632 550.586 293.872 546.618 293.872H542.49V319.408ZM582.664 358V339.664L581.608 335.344L568.264 281.2H582.952L587.08 299.824L588.52 322.384H591.208L592.648 299.824L596.776 281.2H611.464L598.12 335.248L597.064 339.664V358H582.664Z" fill="white"/>
</g>
</g>
<defs>
<clipPath id="clip0_0_480">
<rect width="450" height="799" fill="white"/>
</clipPath>
</defs>
</svg>
